<svg xmlns="http://www.w3.org/2000/svg" xmlns:xlink="http://www.w3.org/1999/xlink" width="288" zoomAndPan="magnify" viewBox="0 0 216 149.999998" height="200" preserveAspectRatio="xMidYMid meet" version="1.0"><defs><clipPath id="d96ac25e68"><path d="M 61 30.054688 L 154.75 30.054688 L 154.75 120 L 61 120 Z M 61 30.054688 " clip-rule="nonzero"/></clipPath></defs><rect x="-21.6" width="259.2" fill="#ffffff" y="-15" height="179.999997" fill-opacity="1"/><rect x="-21.6" width="259.2" fill="#ededed" y="-15" height="179.999997" fill-opacity="1"/><g clip-path="url(#d96ac25e68)"><path fill="#868686" d="M 152.589844 32.574219 C 151.824219 31.808594 150.945312 31.21875 149.945312 30.804688 C 148.945312 30.390625 147.90625 30.183594 146.824219 30.1875 L 69.148438 30.1875 C 68.613281 30.1875 68.082031 30.238281 67.558594 30.34375 C 67.03125 30.449219 66.523438 30.601562 66.027344 30.804688 C 65.535156 31.011719 65.0625 31.261719 64.617188 31.558594 C 64.171875 31.855469 63.761719 32.195312 63.382812 32.574219 C 63.003906 32.953125 62.667969 33.363281 62.367188 33.808594 C 62.070312 34.253906 61.820312 34.722656 61.617188 35.21875 C 61.410156 35.714844 61.257812 36.222656 61.152344 36.746094 C 61.046875 37.273438 60.996094 37.804688 60.996094 38.339844 L 60.996094 111.617188 C 60.996094 112.152344 61.046875 112.679688 61.152344 113.207031 C 61.257812 113.730469 61.410156 114.242188 61.617188 114.734375 C 61.820312 115.230469 62.070312 115.699219 62.367188 116.144531 C 62.667969 116.589844 63.003906 117 63.382812 117.378906 C 63.761719 117.757812 64.171875 118.097656 64.617188 118.394531 C 65.0625 118.691406 65.535156 118.941406 66.027344 119.148438 C 66.523438 119.351562 67.03125 119.507812 67.558594 119.609375 C 68.082031 119.714844 68.613281 119.765625 69.148438 119.765625 L 146.824219 119.765625 C 147.359375 119.765625 147.890625 119.714844 148.414062 119.609375 C 148.9375 119.507812 149.449219 119.351562 149.941406 119.148438 C 150.4375 118.941406 150.90625 118.691406 151.351562 118.394531 C 151.796875 118.097656 152.210938 117.757812 152.589844 117.378906 C 152.96875 117 153.304688 116.589844 153.601562 116.144531 C 153.898438 115.699219 154.152344 115.230469 154.355469 114.734375 C 154.558594 114.242188 154.714844 113.730469 154.820312 113.207031 C 154.921875 112.679688 154.976562 112.152344 154.976562 111.617188 L 154.976562 38.339844 C 154.980469 37.257812 154.773438 36.214844 154.359375 35.21875 C 153.945312 34.21875 153.355469 33.335938 152.589844 32.574219 Z M 150.246094 111.617188 C 150.246094 112.070312 150.160156 112.507812 149.988281 112.925781 C 149.8125 113.347656 149.566406 113.714844 149.246094 114.039062 C 148.925781 114.359375 148.554688 114.605469 148.132812 114.777344 C 147.714844 114.953125 147.277344 115.039062 146.824219 115.039062 L 69.148438 115.039062 C 68.695312 115.039062 68.257812 114.949219 67.839844 114.777344 C 67.417969 114.605469 67.046875 114.355469 66.726562 114.035156 C 66.40625 113.714844 66.160156 113.34375 65.984375 112.925781 C 65.8125 112.507812 65.726562 112.070312 65.726562 111.617188 L 65.726562 38.339844 C 65.722656 37.882812 65.8125 37.449219 65.984375 37.027344 C 66.15625 36.609375 66.40625 36.238281 66.726562 35.917969 C 67.046875 35.59375 67.417969 35.347656 67.835938 35.175781 C 68.257812 35 68.695312 34.914062 69.148438 34.914062 L 146.824219 34.914062 C 147.277344 34.914062 147.714844 35.003906 148.132812 35.175781 C 148.554688 35.351562 148.921875 35.597656 149.242188 35.917969 C 149.566406 36.238281 149.8125 36.609375 149.984375 37.027344 C 150.160156 37.449219 150.246094 37.882812 150.246094 38.339844 Z M 150.246094 111.617188 " fill-opacity="1" fill-rule="nonzero"/></g><path fill="#868686" d="M 92.910156 71.878906 C 93.671875 71.878906 94.425781 71.804688 95.171875 71.65625 C 95.917969 71.507812 96.640625 71.285156 97.34375 70.996094 C 98.046875 70.703125 98.714844 70.347656 99.34375 69.925781 C 99.976562 69.503906 100.5625 69.023438 101.101562 68.484375 C 101.636719 67.945312 102.117188 67.363281 102.542969 66.730469 C 102.964844 66.097656 103.320312 65.429688 103.613281 64.726562 C 103.902344 64.023438 104.121094 63.300781 104.269531 62.554688 C 104.417969 61.808594 104.492188 61.054688 104.492188 60.292969 C 104.492188 59.535156 104.417969 58.78125 104.269531 58.035156 C 104.121094 57.289062 103.902344 56.566406 103.613281 55.863281 C 103.320312 55.160156 102.964844 54.492188 102.542969 53.859375 C 102.117188 53.226562 101.636719 52.640625 101.101562 52.105469 C 100.5625 51.566406 99.976562 51.085938 99.34375 50.664062 C 98.714844 50.242188 98.046875 49.882812 97.34375 49.59375 C 96.640625 49.300781 95.917969 49.082031 95.171875 48.933594 C 94.425781 48.785156 93.671875 48.710938 92.910156 48.710938 C 92.148438 48.710938 91.398438 48.785156 90.652344 48.933594 C 89.90625 49.082031 89.179688 49.300781 88.476562 49.59375 C 87.773438 49.882812 87.109375 50.242188 86.476562 50.664062 C 85.84375 51.085938 85.257812 51.566406 84.71875 52.105469 C 84.183594 52.640625 83.703125 53.226562 83.28125 53.859375 C 82.855469 54.492188 82.5 55.160156 82.210938 55.863281 C 81.917969 56.566406 81.699219 57.289062 81.550781 58.035156 C 81.402344 58.78125 81.328125 59.535156 81.328125 60.292969 C 81.328125 61.054688 81.402344 61.808594 81.550781 62.554688 C 81.699219 63.300781 81.921875 64.023438 82.210938 64.726562 C 82.503906 65.425781 82.859375 66.09375 83.285156 66.726562 C 83.707031 67.359375 84.1875 67.945312 84.722656 68.480469 C 85.261719 69.019531 85.847656 69.5 86.476562 69.921875 C 87.109375 70.34375 87.777344 70.699219 88.480469 70.992188 C 89.183594 71.285156 89.90625 71.503906 90.652344 71.652344 C 91.398438 71.800781 92.148438 71.875 92.910156 71.878906 Z M 92.910156 53.441406 C 93.359375 53.441406 93.804688 53.484375 94.246094 53.574219 C 94.6875 53.660156 95.117188 53.789062 95.53125 53.964844 C 95.949219 54.136719 96.34375 54.347656 96.71875 54.597656 C 97.089844 54.847656 97.4375 55.132812 97.753906 55.449219 C 98.074219 55.765625 98.359375 56.113281 98.609375 56.488281 C 98.859375 56.863281 99.070312 57.257812 99.242188 57.671875 C 99.414062 58.089844 99.542969 58.515625 99.628906 58.957031 C 99.71875 59.398438 99.761719 59.84375 99.761719 60.296875 C 99.761719 60.746094 99.71875 61.191406 99.628906 61.632812 C 99.542969 62.074219 99.414062 62.503906 99.242188 62.917969 C 99.066406 63.332031 98.855469 63.730469 98.605469 64.101562 C 98.355469 64.476562 98.074219 64.824219 97.753906 65.140625 C 97.4375 65.460938 97.089844 65.742188 96.714844 65.992188 C 96.339844 66.242188 95.945312 66.453125 95.53125 66.625 C 95.117188 66.800781 94.6875 66.929688 94.246094 67.015625 C 93.804688 67.105469 93.359375 67.148438 92.910156 67.148438 C 92.457031 67.148438 92.011719 67.105469 91.570312 67.015625 C 91.128906 66.929688 90.703125 66.796875 90.285156 66.625 C 89.871094 66.453125 89.476562 66.242188 89.101562 65.992188 C 88.726562 65.742188 88.378906 65.460938 88.0625 65.140625 C 87.746094 64.824219 87.460938 64.476562 87.210938 64.101562 C 86.960938 63.726562 86.75 63.332031 86.578125 62.917969 C 86.40625 62.503906 86.273438 62.074219 86.1875 61.632812 C 86.097656 61.191406 86.054688 60.746094 86.054688 60.296875 C 86.054688 59.84375 86.101562 59.398438 86.1875 58.957031 C 86.277344 58.515625 86.40625 58.089844 86.578125 57.671875 C 86.75 57.257812 86.960938 56.863281 87.210938 56.488281 C 87.460938 56.113281 87.746094 55.769531 88.066406 55.449219 C 88.382812 55.132812 88.730469 54.847656 89.105469 54.597656 C 89.476562 54.347656 89.871094 54.136719 90.289062 53.964844 C 90.703125 53.792969 91.132812 53.660156 91.574219 53.574219 C 92.015625 53.484375 92.460938 53.441406 92.910156 53.441406 Z M 92.910156 53.441406 " fill-opacity="1" fill-rule="nonzero"/><path fill="#868686" d="M 123.046875 61.03125 C 122.644531 60.292969 122.085938 59.707031 121.371094 59.265625 C 120.65625 58.824219 119.882812 58.589844 119.042969 58.558594 C 118.257812 58.53125 117.511719 58.683594 116.800781 59.019531 C 116.089844 59.355469 115.5 59.835938 115.023438 60.460938 L 97.355469 83.746094 L 92.660156 79.046875 C 92.414062 78.804688 92.148438 78.589844 91.859375 78.402344 C 91.570312 78.21875 91.261719 78.066406 90.941406 77.945312 C 90.617188 77.824219 90.285156 77.742188 89.945312 77.691406 C 89.605469 77.644531 89.261719 77.632812 88.917969 77.65625 C 88.574219 77.683594 88.238281 77.746094 87.910156 77.84375 C 87.578125 77.941406 87.261719 78.070312 86.960938 78.238281 C 86.660156 78.402344 86.378906 78.597656 86.121094 78.824219 C 85.859375 79.050781 85.628906 79.300781 85.421875 79.578125 L 75.003906 93.589844 C 74.738281 93.945312 74.527344 94.332031 74.371094 94.75 C 74.214844 95.164062 74.117188 95.59375 74.078125 96.039062 C 74.039062 96.480469 74.0625 96.921875 74.148438 97.359375 C 74.230469 97.792969 74.375 98.210938 74.574219 98.609375 C 74.773438 99.003906 75.027344 99.367188 75.328125 99.695312 C 75.628906 100.023438 75.96875 100.300781 76.347656 100.535156 C 76.730469 100.765625 77.132812 100.941406 77.5625 101.0625 C 77.988281 101.183594 78.425781 101.242188 78.871094 101.242188 L 137.125 101.210938 C 137.59375 101.210938 138.046875 101.140625 138.496094 101.007812 C 138.941406 100.875 139.363281 100.679688 139.75 100.421875 C 140.140625 100.167969 140.488281 99.859375 140.789062 99.503906 C 141.089844 99.148438 141.332031 98.753906 141.519531 98.328125 C 141.820312 97.644531 141.949219 96.933594 141.914062 96.1875 C 141.878906 95.445312 141.679688 94.75 141.316406 94.097656 Z M 78.785156 96.4375 C 78.789062 96.429688 78.792969 96.417969 78.800781 96.410156 L 89.316406 82.394531 L 94.011719 87.09375 C 94.253906 87.335938 94.519531 87.550781 94.808594 87.734375 C 95.097656 87.921875 95.402344 88.074219 95.722656 88.191406 C 96.042969 88.3125 96.371094 88.398438 96.710938 88.445312 C 97.050781 88.496094 97.390625 88.507812 97.734375 88.484375 C 98.074219 88.460938 98.410156 88.402344 98.742188 88.304688 C 99.070312 88.210938 99.382812 88.082031 99.6875 87.917969 C 99.988281 87.753906 100.269531 87.558594 100.527344 87.335938 C 100.789062 87.113281 101.019531 86.863281 101.226562 86.589844 L 118.90625 63.320312 L 137.121094 96.484375 Z M 78.785156 96.4375 " fill-opacity="1" fill-rule="nonzero"/></svg>